<svg width="24" height="24" viewBox="0 0 25 26" fill="none" xmlns="http://www.w3.org/2000/svg">
<path d="M14.631 21.5C15.1919 21.5 15.7298 21.2761 16.1264 20.8776C16.523 20.4791 16.7458 19.9386 16.7458 19.375C16.7458 18.8114 16.523 18.2709 16.1264 17.8724C15.7298 17.4739 15.1919 17.25 14.631 17.25C14.0701 17.25 13.5322 17.4739 13.1356 17.8724C12.739 18.2709 12.5162 18.8114 12.5162 19.375C12.5162 19.9386 12.739 20.4791 13.1356 20.8776C13.5322 21.2761 14.0701 21.5 14.631 21.5ZM7.22915 21.5C7.79004 21.5 8.32794 21.2761 8.72455 20.8776C9.12115 20.4791 9.34396 19.9386 9.34396 19.375C9.34396 18.8114 9.12115 18.2709 8.72455 17.8724C8.32794 17.4739 7.79004 17.25 7.22915 17.25C6.66827 17.25 6.13036 17.4739 5.73376 17.8724C5.33716 18.2709 5.11435 18.8114 5.11435 19.375C5.11435 19.9386 5.33716 20.4791 5.73376 20.8776C6.13036 21.2761 6.66827 21.5 7.22915 21.5ZM21.0156 6.54319C21.2795 6.53463 21.5298 6.42325 21.7136 6.2326C21.8973 6.04195 22 5.78697 22 5.52159C22 5.25621 21.8973 5.00124 21.7136 4.81059C21.5298 4.61994 21.2795 4.50856 21.0156 4.5H19.7985C18.8447 4.5 18.0199 5.16513 17.8127 6.10013L16.4878 12.0947C16.2805 13.0297 15.4557 13.6949 14.502 13.6949H6.55876L5.03399 7.56425H14.9154C15.1769 7.55226 15.4237 7.43945 15.6045 7.24927C15.7854 7.0591 15.8863 6.80621 15.8863 6.54319C15.8863 6.28017 15.7854 6.02727 15.6045 5.8371C15.4237 5.64693 15.1769 5.53411 14.9154 5.52212H5.03399C4.72487 5.52203 4.4198 5.59276 4.14198 5.72892C3.86415 5.86509 3.62087 6.06311 3.43064 6.30793C3.24041 6.55276 3.10824 6.83794 3.04416 7.1418C2.98009 7.44566 2.9858 7.76019 3.06087 8.0615L4.58565 14.19C4.69557 14.6322 4.94949 15.0248 5.30702 15.3053C5.66455 15.5858 6.10515 15.7381 6.55876 15.7381H14.502C15.4274 15.7382 16.3252 15.4211 17.0471 14.8393C17.769 14.2574 18.2718 13.4456 18.4725 12.5378L19.7985 6.54319H21.0156Z" fill="white"/>
</svg>
