<svg width="19" height="20" viewBox="0 0 19 20" fill="none" xmlns="http://www.w3.org/2000/svg">
<path d="M16.574 16.3381L16.574 16.3381C16.657 16.4211 16.7555 16.487 16.864 16.5319C16.9725 16.5769 17.0887 16.6 17.2061 16.6C17.3235 16.6 17.4397 16.5769 17.5482 16.5319C17.6566 16.487 17.7552 16.4211 17.8382 16.3381C17.9212 16.255 17.987 16.1565 18.032 16.048C18.0769 15.9395 18.1 15.8232 18.1 15.7058C18.1 15.5883 18.0769 15.4721 18.032 15.3636C17.987 15.2551 17.9212 15.1565 17.8382 15.0735L17.8382 15.0735L14.4987 11.7334C15.4662 10.449 15.92 8.84825 15.7687 7.24494C15.6146 5.61177 14.8444 4.09865 13.6147 3.01341C12.3851 1.92818 10.7883 1.35235 9.14925 1.40309C7.51023 1.45383 5.95209 2.12732 4.79184 3.28654C3.63057 4.44656 2.95516 6.0059 2.90323 7.64679C2.8513 9.28768 3.42676 10.8866 4.51236 12.1178C5.59795 13.349 7.11198 14.1198 8.74591 14.273C10.3501 14.4235 11.9513 13.9675 13.2351 12.997L16.574 16.3381ZM12.6477 4.55176C13.0863 4.98343 13.4351 5.4977 13.674 6.06491C13.9129 6.63212 14.0372 7.24104 14.0397 7.85655C14.0422 8.47206 13.9229 9.08198 13.6886 9.65112C13.4543 10.2203 13.1097 10.7374 12.6746 11.1726C12.2396 11.6078 11.7227 11.9526 11.1538 12.1869C10.5849 12.4213 9.97524 12.5407 9.35999 12.5382C8.74475 12.5357 8.13608 12.4113 7.56911 12.1723C7.00213 11.9333 6.48807 11.5844 6.05657 11.1456C5.19425 10.2688 4.7132 9.0866 4.71821 7.85655C4.72321 6.6265 5.21387 5.44827 6.0833 4.5785C6.95272 3.70873 8.13047 3.21788 9.35999 3.21288C10.5895 3.20787 11.7712 3.6891 12.6477 4.55176Z" fill="white" stroke="white" stroke-width="0.2"/>
</svg>
