<svg width="28" height="28" viewBox="0 0 28 28" fill="none" xmlns="http://www.w3.org/2000/svg">
<g clip-path="url(#clip0_2_112)">
<path d="M25.9988 6.25551C25.1 6.64264 24.1467 6.89689 23.1707 7.00985C24.1995 6.41077 24.9694 5.46794 25.3371 4.35705C24.3717 4.9165 23.3132 5.30857 22.21 5.52066C21.4689 4.74864 20.4867 4.23663 19.416 4.06424C18.3452 3.89184 17.246 4.06872 16.2892 4.56736C15.3323 5.06601 14.5715 5.85849 14.1249 6.8216C13.6784 7.78471 13.5711 8.86449 13.8199 9.89307C11.862 9.79752 9.94662 9.30212 8.19814 8.43904C6.44966 7.57595 4.90714 6.36447 3.67072 4.88325C3.23307 5.61518 3.00309 6.44722 3.00432 7.29416C3.00432 8.95645 3.87323 10.425 5.19427 11.2848C4.41249 11.2609 3.64792 11.0553 2.96429 10.6852V10.7449C2.96452 11.8519 3.35797 12.9249 4.07792 13.7818C4.79787 14.6386 5.80002 15.2267 6.91444 15.4463C6.18871 15.6378 5.42776 15.666 4.68917 15.5288C5.00338 16.4818 5.61579 17.3152 6.44065 17.9123C7.26551 18.5095 8.26153 18.8406 9.28925 18.8592C8.26783 19.6402 7.09832 20.2176 5.84758 20.5583C4.59684 20.899 3.2894 20.9964 2 20.8447C4.25082 22.2542 6.87099 23.0024 9.5471 23C18.6048 23 23.5581 15.6939 23.5581 9.3577C23.5581 9.15134 23.5522 8.9427 23.5428 8.73864C24.5069 8.06015 25.339 7.21966 26 6.25665L25.9988 6.25551Z" fill="#486A93"/>
</g>
<defs>
<clipPath id="clip0_2_112">
<rect width="28" height="28" fill="white"/>
</clipPath>
</defs>
</svg>
