<svg width="28" height="28" viewBox="0 0 28 28" fill="none" xmlns="http://www.w3.org/2000/svg">
<g clip-path="url(#clip0_2_115)">
<path d="M13.5 2C16.6245 2 17.0144 2.0115 18.2403 2.069C19.465 2.1265 20.2988 2.31855 21.0325 2.60375C21.7915 2.89585 22.4309 3.29145 23.0703 3.9297C23.6551 4.50458 24.1075 5.19998 24.3962 5.9675C24.6803 6.70005 24.8735 7.53495 24.931 8.7597C24.9851 9.9856 25 10.3755 25 13.5C25 16.6245 24.9885 17.0144 24.931 18.2403C24.8735 19.465 24.6803 20.2988 24.3962 21.0325C24.1084 21.8004 23.6558 22.496 23.0703 23.0703C22.4953 23.6549 21.7999 24.1073 21.0325 24.3962C20.2999 24.6803 19.465 24.8735 18.2403 24.931C17.0144 24.9851 16.6245 25 13.5 25C10.3755 25 9.9856 24.9885 8.7597 24.931C7.53495 24.8735 6.7012 24.6803 5.9675 24.3962C5.19967 24.1081 4.50416 23.6556 3.9297 23.0703C3.34482 22.4955 2.89232 21.8001 2.60375 21.0325C2.31855 20.2999 2.1265 19.465 2.069 18.2403C2.01495 17.0144 2 16.6245 2 13.5C2 10.3755 2.0115 9.9856 2.069 8.7597C2.1265 7.5338 2.31855 6.7012 2.60375 5.9675C2.89152 5.19951 3.34412 4.50392 3.9297 3.9297C4.50432 3.34462 5.19979 2.89209 5.9675 2.60375C6.7012 2.31855 7.5338 2.1265 8.7597 2.069C9.9856 2.01495 10.3755 2 13.5 2ZM13.5 7.75C11.975 7.75 10.5125 8.3558 9.43414 9.43414C8.3558 10.5125 7.75 11.975 7.75 13.5C7.75 15.025 8.3558 16.4875 9.43414 17.5659C10.5125 18.6442 11.975 19.25 13.5 19.25C15.025 19.25 16.4875 18.6442 17.5659 17.5659C18.6442 16.4875 19.25 15.025 19.25 13.5C19.25 11.975 18.6442 10.5125 17.5659 9.43414C16.4875 8.3558 15.025 7.75 13.5 7.75ZM20.975 7.4625C20.975 7.08125 20.8236 6.71562 20.554 6.44603C20.2844 6.17645 19.9187 6.025 19.5375 6.025C19.1562 6.025 18.7906 6.17645 18.521 6.44603C18.2514 6.71562 18.1 7.08125 18.1 7.4625C18.1 7.84375 18.2514 8.20938 18.521 8.47897C18.7906 8.74855 19.1562 8.9 19.5375 8.9C19.9187 8.9 20.2844 8.74855 20.554 8.47897C20.8236 8.20938 20.975 7.84375 20.975 7.4625ZM13.5 10.05C14.415 10.05 15.2925 10.4135 15.9395 11.0605C16.5865 11.7075 16.95 12.585 16.95 13.5C16.95 14.415 16.5865 15.2925 15.9395 15.9395C15.2925 16.5865 14.415 16.95 13.5 16.95C12.585 16.95 11.7075 16.5865 11.0605 15.9395C10.4135 15.2925 10.05 14.415 10.05 13.5C10.05 12.585 10.4135 11.7075 11.0605 11.0605C11.7075 10.4135 12.585 10.05 13.5 10.05Z" fill="#486A93"/>
</g>
<defs>
<clipPath id="clip0_2_115">
<rect width="28" height="28" fill="white"/>
</clipPath>
</defs>
</svg>
